<svg version="1.1" id="Layer_1" xmlns="http://www.w3.org/2000/svg" xmlns:xlink="http://www.w3.org/1999/xlink" x="0px" y="0px"
	 width="100%" viewBox="0 0 50 50" enable-background="new 0 0 50 50" xml:space="preserve">
<path fill="#FFFFFE" opacity="1.000000" stroke="none" 
	d="
M7.000000,1.000000 
	C19.020895,1.000000 31.041788,1.000000 43.437866,1.328393 
	C42.258625,4.109132 40.704201,6.561478 38.897835,9.364429 
	C35.157932,9.910816 31.669977,10.106599 28.182022,10.302382 
	C28.129484,10.933806 28.076944,11.565230 28.024406,12.196655 
	C30.987871,12.519981 33.951336,12.843307 36.772659,13.486181 
	C35.586304,16.685934 34.542095,19.566139 33.299530,22.830952 
	C31.574966,25.825840 30.048765,28.436119 28.109531,31.752813 
	C29.656261,31.554031 31.755636,31.284227 34.020531,31.351360 
	C35.093128,34.401787 36.000210,37.115273 36.467373,39.898094 
	C33.367992,39.967430 30.708529,39.967430 28.049063,39.967430 
	C28.016603,40.751507 27.984144,41.535583 27.951685,42.319660 
	C31.627514,42.601223 35.303341,42.882786 39.108009,43.471664 
	C40.824566,46.185986 42.412285,48.592995 44.000000,51.000000 
	C31.979105,51.000000 19.958210,51.000000 7.568724,50.673073 
	C13.839488,42.787739 17.530399,34.233227 17.084974,23.915625 
	C16.693756,14.853691 12.062837,7.885883 7.000000,1.000000 
z"/>
<path fill="#FFFFFE" opacity="1.000000" stroke="none" 
	d="
M1.999999,51.000000 
	C1.666666,50.012943 1.046689,49.027004 1.042849,48.038666 
	C0.981931,32.359291 1.000000,16.679611 1.611822,1.316004 
	C2.800085,2.229240 3.355191,2.848907 3.956138,3.420369 
	C14.638009,13.578148 16.771788,25.650583 10.947337,38.834209 
	C8.961272,43.329670 5.038083,46.969318 1.999999,51.000000 
z"/>
<path fill="#FEFEFD" opacity="1.000000" stroke="none" 
	d="
M49.000000,1.000000 
	C49.666668,1.333333 50.914600,1.663270 50.916573,2.000487 
	C51.012001,18.333263 51.000015,34.666668 50.958904,50.999897 
	C50.958900,51.000736 50.333332,51.000000 49.389877,50.683697 
	C46.792416,47.912781 44.805077,45.458172 42.896301,42.649498 
	C42.034012,41.198795 41.093166,40.102154 39.975388,38.669510 
	C39.563103,35.135231 39.367596,31.933073 39.056892,28.742134 
	C38.998688,28.144430 38.479591,27.591606 38.193283,26.680355 
	C39.940533,24.543491 41.667686,22.744345 43.394844,20.945200 
	C43.140347,20.568691 42.885853,20.192184 42.631355,19.815676 
	C41.414318,20.264725 40.197277,20.713774 38.678436,20.941296 
	C38.908821,18.202070 39.441010,15.684370 40.358536,13.098167 
	C41.431274,12.013791 42.118683,10.997918 42.869781,9.621477 
	C44.955647,6.507273 46.977825,3.753637 49.000000,1.000000 
z"/>
<path fill="#DAFF3A" opacity="1.000000" stroke="none" 
	d="
M2.416666,51.000000 
	C5.038083,46.969318 8.961272,43.329670 10.947337,38.834209 
	C16.771788,25.650583 14.638009,13.578148 3.956138,3.420369 
	C3.355191,2.848907 2.800085,2.229240 2.111822,1.316004 
	C3.388889,1.000000 4.777778,1.000000 6.583333,1.000000 
	C12.062837,7.885883 16.693756,14.853691 17.084974,23.915625 
	C17.530399,34.233227 13.839488,42.787739 7.100066,50.673073 
	C5.611111,51.000000 4.222222,51.000000 2.416666,51.000000 
z"/>
<path fill="#DBFF3E" opacity="1.000000" stroke="none" 
	d="
M48.583336,1.000000 
	C46.977825,3.753637 44.955647,6.507273 42.542526,9.626410 
	C41.150978,9.665882 40.150379,9.339853 39.149776,9.013824 
	C40.704201,6.561478 42.258625,4.109132 43.906525,1.328393 
	C45.388889,1.000000 46.777779,1.000000 48.583336,1.000000 
z"/>
<path fill="#DBFF3E" opacity="1.000000" stroke="none" 
	d="
M42.817738,43.003555 
	C44.805077,45.458172 46.792416,47.912781 48.889877,50.683697 
	C47.611111,51.000000 46.222221,51.000000 44.416664,51.000000 
	C42.412285,48.592995 40.824566,46.185986 39.486656,43.395920 
	C40.763554,43.009762 41.790646,43.006660 42.817738,43.003555 
z"/>
<path fill="#36B41D" opacity="1.000000" stroke="none" 
	d="
M38.980240,21.162823 
	C40.197277,20.713774 41.414318,20.264725 42.631355,19.815676 
	C42.885853,20.192184 43.140347,20.568691 43.394844,20.945200 
	C41.667686,22.744345 39.940533,24.543491 37.999985,26.969559 
	C36.476063,28.735794 35.165535,29.875107 33.855011,31.014421 
	C31.755636,31.284227 29.656261,31.554031 28.109531,31.752813 
	C30.048765,28.436119 31.574966,25.825840 33.524624,23.034035 
	C35.625465,22.289282 37.302853,21.726051 38.980240,21.162823 
z"/>
<path fill="#1DE6E6" opacity="1.000000" stroke="none" 
	d="
M38.897835,9.364429 
	C40.150379,9.339853 41.150978,9.665882 42.478836,9.986979 
	C42.118683,10.997918 41.431274,12.013791 39.978638,13.032290 
	C38.447208,13.078821 37.681004,13.122727 36.914803,13.166634 
	C33.951336,12.843307 30.987871,12.519981 28.024406,12.196655 
	C28.076944,11.565230 28.129484,10.933806 28.182022,10.302382 
	C31.669977,10.106599 35.157932,9.910816 38.897835,9.364429 
z"/>
<path fill="#1E1ECC" opacity="1.000000" stroke="none" 
	d="
M42.896301,42.649498 
	C41.790646,43.006660 40.763554,43.009762 39.357815,43.088608 
	C35.303341,42.882786 31.627514,42.601223 27.951685,42.319660 
	C27.984144,41.535583 28.016603,40.751507 28.049063,39.967430 
	C30.708529,39.967430 33.367992,39.967430 36.831524,39.972267 
	C38.474499,39.653236 39.313408,39.329376 40.152317,39.005512 
	C41.093166,40.102154 42.034012,41.198795 42.896301,42.649498 
z"/>
<path fill="#DAFD3A" opacity="1.000000" stroke="none" 
	d="
M39.975388,38.669510 
	C39.313408,39.329376 38.474499,39.653236 37.271439,39.902931 
	C36.000210,37.115273 35.093128,34.401787 34.020531,31.351360 
	C35.165535,29.875107 36.476063,28.735794 37.979885,27.307276 
	C38.479591,27.591606 38.998688,28.144430 39.056892,28.742134 
	C39.367596,31.933073 39.563103,35.135231 39.975388,38.669510 
z"/>
<path fill="#D9FF38" opacity="1.000000" stroke="none" 
	d="
M36.772659,13.486181 
	C37.681004,13.122727 38.447208,13.078821 39.593307,13.100792 
	C39.441010,15.684370 38.908821,18.202070 38.678436,20.941296 
	C37.302853,21.726051 35.625465,22.289282 33.722984,22.649429 
	C34.542095,19.566139 35.586304,16.685934 36.772659,13.486181 
z"/>
</svg>